<svg width="32" height="32" viewBox="0 0 32 32" fill="none" xmlns="http://www.w3.org/2000/svg">
<path opacity="0.2" d="M5.99121 16H25.9912V18.5C25.9912 21.1522 24.9376 23.6957 23.0623 25.5711C21.1869 27.4464 18.6434 28.5 15.9912 28.5C13.339 28.5 10.7955 27.4464 8.92014 25.5711C7.04478 23.6957 5.99121 21.1522 5.99121 18.5V16Z" fill="white"/>
<path d="M25.9912 18.5C25.9912 21.1522 24.9376 23.6957 23.0623 25.5711C21.1869 27.4464 18.6434 28.5 15.9912 28.5C13.339 28.5 10.7955 27.4464 8.92014 25.5711C7.04478 23.6957 5.99121 21.1522 5.99121 18.5V13.5C5.99121 10.8478 7.04478 8.3043 8.92014 6.42893C10.7955 4.55357 13.339 3.5 15.9912 3.5C18.6434 3.5 21.1869 4.55357 23.0623 6.42893C24.9376 8.3043 25.9912 10.8478 25.9912 13.5V18.5Z" stroke="white" stroke-width="2" stroke-linecap="round" stroke-linejoin="round"/>
<path d="M25.9912 16H5.99121" stroke="white" stroke-width="2" stroke-linecap="round" stroke-linejoin="round"/>
<path d="M19.9912 11.5C19.9912 11.7761 19.7674 12 19.4912 12C19.2151 12 18.9912 11.7761 18.9912 11.5C18.9912 11.2239 19.2151 11 19.4912 11C19.7674 11 19.9912 11.2239 19.9912 11.5Z" fill="white" stroke="white" stroke-width="2"/>
<path d="M12.9912 11.5C12.9912 11.7761 12.7674 12 12.4912 12C12.2151 12 11.9912 11.7761 11.9912 11.5C11.9912 11.2239 12.2151 11 12.4912 11C12.7674 11 12.9912 11.2239 12.9912 11.5Z" fill="white" stroke="white" stroke-width="2"/>
<path d="M6.99121 3.5L9.53049 5.867" stroke="white" stroke-width="2" stroke-linecap="round" stroke-linejoin="round"/>
<path d="M24.9913 3.5L22.452 5.86708" stroke="white" stroke-width="2" stroke-linecap="round" stroke-linejoin="round"/>
</svg>
