<svg width="116" height="30" viewBox="0 0 116 30" fill="none" xmlns="http://www.w3.org/2000/svg">
<path d="M1.93586 11.2291L15.9738 3.74219L30.0118 11.2291L15.9738 18.716L1.93586 11.2291Z" stroke="#FF6636" stroke-width="2.24607" stroke-linecap="round" stroke-linejoin="round"/>
<path d="M22.9928 28.076V14.9739L15.9738 11.2305" stroke="#FF6636" stroke-width="2.24607" stroke-linecap="round" stroke-linejoin="round"/>
<path d="M26.7363 12.9766V19.3546C26.7366 19.5565 26.6714 19.753 26.5503 19.9146C25.7622 20.9632 22.4375 24.7996 15.9738 24.7996C9.51018 24.7996 6.18541 20.9632 5.39734 19.9146C5.27626 19.753 5.211 19.5565 5.21139 19.3546V12.9766" stroke="#FF6636" stroke-width="2.24607" stroke-linecap="round" stroke-linejoin="round"/>
<path d="M38.6558 24V6.57592H49.9882V9.22186H41.8122V13.9522H49.4012V16.5982H41.8122V21.3541H50.0563V24H38.6558ZM60.2744 15.4751V18.0105H52.4301V15.4751H60.2744ZM69.3205 10.9319V13.3141H61.8081V10.9319H69.3205ZM63.6628 7.80105H66.7426V20.0694C66.7426 20.4834 66.805 20.801 66.9298 21.0223C67.0603 21.2378 67.2304 21.3853 67.4403 21.4647C67.6502 21.5441 67.8827 21.5838 68.1379 21.5838C68.3308 21.5838 68.5066 21.5696 68.6654 21.5412C68.8299 21.5129 68.9547 21.4873 69.0398 21.4647L69.5587 23.8724C69.3943 23.9291 69.1589 23.9915 68.8526 24.0596C68.552 24.1276 68.1833 24.1673 67.7466 24.1787C66.9752 24.2014 66.2804 24.0851 65.6622 23.8298C65.0439 23.5689 64.5533 23.1662 64.1903 22.6217C63.833 22.0772 63.6571 21.3966 63.6628 20.5798V7.80105ZM79.5067 18.5039V10.9319H82.5866V24H79.6003V21.6774H79.4642C79.1692 22.409 78.6843 23.0074 78.0093 23.4725C77.3401 23.9376 76.5148 24.1702 75.5336 24.1702C74.6771 24.1702 73.9199 23.9801 73.262 23.6001C72.6097 23.2144 72.0992 22.6558 71.7305 21.9241C71.3619 21.1867 71.1775 20.2962 71.1775 19.2526V10.9319H74.2574V18.7762C74.2574 19.6043 74.4843 20.2622 74.938 20.75C75.3918 21.2378 75.9873 21.4817 76.7247 21.4817C77.1784 21.4817 77.618 21.3711 78.0434 21.1499C78.4688 20.9287 78.8176 20.5997 79.0898 20.163C79.3678 19.7205 79.5067 19.1675 79.5067 18.5039ZM91.5604 10.9319V13.3141H84.048V10.9319H91.5604ZM85.9027 7.80105H88.9825V20.0694C88.9825 20.4834 89.0449 20.801 89.1697 21.0223C89.3001 21.2378 89.4703 21.3853 89.6802 21.4647C89.89 21.5441 90.1226 21.5838 90.3778 21.5838C90.5706 21.5838 90.7465 21.5696 90.9053 21.5412C91.0698 21.5129 91.1946 21.4873 91.2796 21.4647L91.7986 23.8724C91.6341 23.9291 91.3987 23.9915 91.0925 24.0596C90.7919 24.1276 90.4232 24.1673 89.9864 24.1787C89.2151 24.2014 88.5203 24.0851 87.902 23.8298C87.2838 23.5689 86.7932 23.1662 86.4302 22.6217C86.0728 22.0772 85.897 21.3966 85.9027 20.5798V7.80105ZM98.9773 24.2552C97.7011 24.2552 96.5951 23.9745 95.6592 23.413C94.7234 22.8514 93.9974 22.0659 93.4812 21.0563C92.9707 20.0467 92.7155 18.8669 92.7155 17.517C92.7155 16.1671 92.9707 14.9845 93.4812 13.9692C93.9974 12.954 94.7234 12.1656 95.6592 11.6041C96.5951 11.0425 97.7011 10.7618 98.9773 10.7618C100.253 10.7618 101.359 11.0425 102.295 11.6041C103.231 12.1656 103.954 12.954 104.465 13.9692C104.981 14.9845 105.239 16.1671 105.239 17.517C105.239 18.8669 104.981 20.0467 104.465 21.0563C103.954 22.0659 103.231 22.8514 102.295 23.413C101.359 23.9745 100.253 24.2552 98.9773 24.2552ZM98.9943 21.788C99.6863 21.788 100.265 21.5979 100.73 21.2179C101.195 20.8322 101.541 20.3161 101.768 19.6695C102 19.0229 102.117 18.3026 102.117 17.5085C102.117 16.7088 102 15.9856 101.768 15.339C101.541 14.6867 101.195 14.1678 100.73 13.7821C100.265 13.3964 99.6863 13.2035 98.9943 13.2035C98.2853 13.2035 97.6954 13.3964 97.2247 13.7821C96.7596 14.1678 96.4108 14.6867 96.1782 15.339C95.9513 15.9856 95.8379 16.7088 95.8379 17.5085C95.8379 18.3026 95.9513 19.0229 96.1782 19.6695C96.4108 20.3161 96.7596 20.8322 97.2247 21.2179C97.6954 21.5979 98.2853 21.788 98.9943 21.788ZM107.134 24V10.9319H110.121V13.1099H110.257C110.495 12.3556 110.903 11.7742 111.482 11.3658C112.066 10.9518 112.733 10.7448 113.481 10.7448C113.651 10.7448 113.841 10.7533 114.051 10.7703C114.267 10.7816 114.445 10.8015 114.587 10.8298V13.663C114.457 13.6176 114.25 13.5779 113.966 13.5438C113.688 13.5041 113.419 13.4843 113.158 13.4843C112.596 13.4843 112.092 13.6062 111.644 13.8501C111.201 14.0884 110.852 14.4202 110.597 14.8455C110.342 15.2709 110.214 15.7616 110.214 16.3174V24H107.134Z" fill="white"/>
</svg>
