<svg width="32" height="32" viewBox="0 0 32 32" fill="none" xmlns="http://www.w3.org/2000/svg">
<path opacity="0.2" d="M15.0008 7.00037L7.5412 9.79773C7.37689 9.85933 7.23168 9.9631 7.12017 10.0986C7.00866 10.2341 6.93476 10.3965 6.90592 10.5696L4.00079 28.0004L21.4315 25.0952C21.6046 25.0664 21.7671 24.9925 21.9026 24.881C22.0381 24.7695 22.1418 24.6243 22.2034 24.46L25.0008 17.0004L15.0008 7.00037ZM14.5001 19.9999C14.0056 19.9999 13.5223 19.8533 13.1111 19.5786C12.7 19.3039 12.3796 18.9135 12.1904 18.4566C12.0011 17.9998 11.9516 17.4972 12.0481 17.0122C12.1446 16.5273 12.3827 16.0818 12.7323 15.7322C13.0819 15.3825 13.5274 15.1444 14.0123 15.048C14.4973 14.9515 15 15.001 15.4568 15.1902C15.9136 15.3795 16.304 15.6999 16.5787 16.111C16.8534 16.5221 17.0001 17.0055 17.0001 17.4999C17.0001 17.8282 16.9354 18.1533 16.8098 18.4566C16.6841 18.76 16.5 19.0356 16.2678 19.2677C16.0357 19.4999 15.7601 19.684 15.4568 19.8096C15.1535 19.9353 14.8284 19.9999 14.5001 19.9999Z" fill="#FF6636"/>
<path d="M14.5 20C15.8807 20 17 18.8807 17 17.5C17 16.1193 15.8807 15 14.5 15C13.1193 15 12 16.1193 12 17.5C12 18.8807 13.1193 20 14.5 20Z" stroke="#FF6636" stroke-width="2" stroke-linecap="round" stroke-linejoin="round"/>
<path d="M4.00067 28.0004L12.7322 19.2677" stroke="#FF6636" stroke-width="2" stroke-linecap="round" stroke-linejoin="round"/>
<path d="M4.00067 28.0005L21.4314 25.0954C21.6045 25.0665 21.7669 24.9926 21.9024 24.8811C22.0379 24.7696 22.1417 24.6244 22.2033 24.4601L25.0007 17.0005L15.0007 7.00049L7.54106 9.79785C7.37675 9.85946 7.23155 9.96323 7.12004 10.0987C7.00853 10.2342 6.93464 10.3967 6.90579 10.5698L4.00067 28.0005Z" stroke="#FF6636" stroke-width="2" stroke-linecap="round" stroke-linejoin="round"/>
<path d="M25.0007 17.0005L28.2936 13.7076C28.3864 13.6147 28.4601 13.5045 28.5103 13.3831C28.5606 13.2618 28.5865 13.1318 28.5865 13.0005C28.5865 12.8691 28.5606 12.7391 28.5103 12.6178C28.4601 12.4964 28.3864 12.3862 28.2936 12.2934L19.7078 3.70757C19.5202 3.52003 19.2659 3.41467 19.0007 3.41467C18.7355 3.41467 18.4811 3.52003 18.2936 3.70757L15.0007 7.00046" stroke="#FF6636" stroke-width="2" stroke-linecap="round" stroke-linejoin="round"/>
</svg>
